<svg width="19" height="19" viewBox="0 0 19 19" fill="none" xmlns="http://www.w3.org/2000/svg">
<path d="M16.9919 11.3228C15.9979 9.58755 16.5967 7.37511 18.3302 6.37806L16.4635 3.1445C15.9129 3.46717 15.286 3.6369 14.6478 3.63613C13.6866 3.63298 12.766 3.24812 12.0886 2.56622C11.4111 1.88431 11.0323 0.961212 11.0354 0H7.30075C7.30614 0.639811 7.13964 1.26933 6.81862 1.82281C5.82231 3.54944 3.60525 4.13606 1.86675 3.13619L0 6.36975C0.555323 6.68444 1.0159 7.14256 1.33356 7.69619C2.32575 9.42821 1.73122 11.6364 0.00356252 12.6362L1.87031 15.8698C2.40231 15.5598 3.01863 15.3829 3.67769 15.3829C5.67189 15.3894 7.28615 17.0058 7.29006 19H11.0247C11.0229 18.3666 11.1893 17.7442 11.5069 17.1962C12.5108 15.4707 14.7207 14.8815 16.4504 15.8781L18.3172 12.6445C17.7658 12.3296 17.3084 11.8733 16.9919 11.3228ZM9.16631 13.3475C7.0414 13.3475 5.31881 11.6249 5.31881 9.5C5.31881 7.37508 7.0414 5.6525 9.16631 5.6525C11.2912 5.6525 13.0138 7.37508 13.0138 9.5C13.0138 11.6249 11.2912 13.3475 9.16631 13.3475Z" fill="#4D92FF"/>
</svg>
